<svg xmlns="http://www.w3.org/2000/svg" width="32" height="32" fill="none" viewBox="0 0 32 32"><g stroke="#d2cdc6" stroke-linecap="round" stroke-linejoin="round" stroke-width="2" clip-path="url(#clip0_358_260)"><path d="M19 13h-6v6h6Z"/><path d="M25 6H7a1 1 0 0 0-1 1v18a1 1 0 0 0 1 1h18a1 1 0 0 0 1-1V7a1 1 0 0 0-1-1"/><path d="M26 13h3"/><path d="M26 19h3"/><path d="M3 13h3"/><path d="M3 19h3"/><path d="M19 26v3"/><path d="M13 26v3"/><path d="M19 3v3"/><path d="M13 3v3"/></g><defs><clipPath id="clip0_358_260"><path fill="#fff" d="M0 0h32v32H0Z"/></clipPath></defs></svg>