<svg xmlns="http://www.w3.org/2000/svg" width="26" height="26" fill="none" viewBox="0 0 26 26"><g clip-path="url(#clip0_2091_183)"><path fill="#52483e" d="M9.344 15.438A1.219 1.219 0 1 0 9.344 13 1.219 1.219 0 0 0 9.344 15.438"/><path fill="#52483e" d="M16.656 15.438A1.219 1.219 0 1 0 16.656 13 1.219 1.219 0 0 0 16.656 15.438"/><path stroke="#52483e" stroke-linecap="round" stroke-linejoin="round" stroke-width="1.625" d="m15.584 7.484.508-1.993a.82.82 0 0 1 .935-.61l3.66.604a.82.82 0 0 1 .664.61l3 11.818a.81.81 0 0 1-.462.938l-6.805 3.017a.827.827 0 0 1-1.117-.463l-1.037-2.813"/><path stroke="#52483e" stroke-linecap="round" stroke-linejoin="round" stroke-width="1.625" d="m10.416 7.484-.508-1.993a.823.823 0 0 0-.935-.61l-3.661.604a.82.82 0 0 0-.664.61l-3 11.816a.81.81 0 0 0 .462.939l6.805 3.016a.83.83 0 0 0 1.117-.463l1.038-2.81"/><path stroke="#52483e" stroke-linecap="round" stroke-linejoin="round" stroke-width="1.625" d="M8.125 7.953A18.2 18.2 0 0 1 13 7.313a18.2 18.2 0 0 1 4.875.64"/><path stroke="#52483e" stroke-linecap="round" stroke-linejoin="round" stroke-width="1.625" d="M17.875 18.047a18.2 18.2 0 0 1-4.875.64 18.2 18.2 0 0 1-4.875-.64"/></g><defs><clipPath id="clip0_2091_183"><path fill="#fff" d="M0 0h26v26H0Z"/></clipPath></defs></svg>