<svg xmlns="http://www.w3.org/2000/svg" width="260" height="260" fill="none" viewBox="0 0 260 260"><g clip-path="url(#clip0_3844_211)"><rect width="260" height="260" fill="#000" rx="40"/><path fill="#fff" d="M16 44h227v173H16Z"/><path fill="#000" d="M13 13h234c7.18 0 13 5.82 13 13v208c0 7.18-5.82 13-13 13H13c-7.18 0-13-5.82-13-13V26c0-7.18 5.82-13 13-13m175.039 162.961L234 130l-45.961-45.962-18.385 18.385L197.231 130l-27.577 27.577ZM62.769 130l27.578-27.577-18.385-18.385L26 130l45.962 45.961 18.385-18.384Zm57.407 65 47.316-130h-27.668L92.508 195Z"/></g><defs><clipPath id="clip0_3844_211"><rect width="260" height="260" fill="#fff" rx="40"/></clipPath></defs></svg>